<svg width="416" height="298" viewBox="0 0 416 298" fill="none" xmlns="http://www.w3.org/2000/svg">
<path d="M30.25 0.875H385.75C393.607 0.875 401.142 3.9962 406.698 9.55196C412.254 15.1077 415.375 22.643 415.375 30.5C415.375 38.357 412.254 45.8923 406.698 51.448C401.142 57.0038 393.607 60.125 385.75 60.125H30.25C22.393 60.125 14.8577 57.0038 9.30196 51.448C3.7462 45.8923 0.625 38.357 0.625 30.5C0.625 22.643 3.7462 15.1077 9.30196 9.55196C14.8577 3.9962 22.393 0.875 30.25 0.875V0.875ZM30.25 119.375H385.75C393.607 119.375 401.142 122.496 406.698 128.052C412.254 133.608 415.375 141.143 415.375 149C415.375 156.857 412.254 164.392 406.698 169.948C401.142 175.504 393.607 178.625 385.75 178.625H30.25C22.393 178.625 14.8577 175.504 9.30196 169.948C3.7462 164.392 0.625 156.857 0.625 149C0.625 141.143 3.7462 133.608 9.30196 128.052C14.8577 122.496 22.393 119.375 30.25 119.375V119.375ZM30.25 237.875H385.75C393.607 237.875 401.142 240.996 406.698 246.552C412.254 252.108 415.375 259.643 415.375 267.5C415.375 275.357 412.254 282.892 406.698 288.448C401.142 294.004 393.607 297.125 385.75 297.125H30.25C22.393 297.125 14.8577 294.004 9.30196 288.448C3.7462 282.892 0.625 275.357 0.625 267.5C0.625 259.643 3.7462 252.108 9.30196 246.552C14.8577 240.996 22.393 237.875 30.25 237.875V237.875Z" fill="white"/>
</svg>
