<svg xmlns="http://www.w3.org/2000/svg" id="圖層_1" data-name="圖層 1" viewBox="0 0 200 37">
    <defs>
        <style>
            .cls-1{fill:#ff0029}
        </style>
    </defs>
    <path d="M22.22 29.08a18.26 18.26 0 0 0 2.44 1.36c8.64 3.79 21.27 6.1 23.73 5.31C55 33.59 62.47 19.5 64.81 13c0 0-7 2.78-14.06 6.1-5.92 2.77-9.52 4.55-11.2 5.41l-.35.13.3-.11-1.12.57L58.57 19l-3.71 1.14s-4.42 10.37-10.17 11.53-16-2.88-16-2.89c.85-.65 11.48-8.63 36.67-18.9h.1a5.05 5.05 0 0 0 2-3.42 52.12 52.12 0 0 0-16.78 4.85C40.1 16.34 22.22 29.08 22.22 29.08zM47 32.91a4.83 4.83 0 0 1-.5.16 4.83 4.83 0 0 0 .5-.16zm13.51-21.48c1.55-.56 3.09-1 4.63-1.49-1.54.45-3.08.94-4.63 1.49zM39.2 24.64zM0 16.37c.19.51 2 5.23 3.82 7.59s9.08 4.14 10.1 4.38l.13.06h-.06.06C9.44 25.18 0 16.37 0 16.37z" class="cls-1"/>
    <path d="M20.06 29.8c-.65-1.26.16-2.92 5.54-6.9C30.45 19.31 47.94 4.6 64.67.65c0 0-8.77-1.43-21.3 2.52-4.47 1.4-11 7.65-23.09 19.44-1.64.91-7.51-2.46-10.89-4.08 0 0 5.61 8.88 7.58 11.54C20 34.2 25.5 36.6 25.5 36.6v-.05c-.5-.49-4.25-4.5-5.44-6.75zM127.94 6.8h-3.06v8.87h-5.55V6.8h-3.08v10.4h11.69V6.8zM152.93 15.63h-7.51V6.82h-3.08v10.34h9.19l1.4-1.53zM154.16 6.82h3.09V17.2h-3.09zM191.72 8.34h6.87L200 6.82h-11.37v10.34h3.09v-5.07h6.63l1.28-1.54h-7.91V8.34zM106.61 13.83h8.32V7.6a.78.78 0 0 0-.74-.8H103.5v10.33h3.11zm0-5.5h5c.07 0 .27 0 .27.45v3.51h-5.27zM140.67 10.77h-.9v-3c0-.58-.3-1-.76-1h-9.68v10.36h11.34zm-3.09 4.82h-5.16v-3.3h5.16zm0-4.84h-5.16V8.33h4.89c.26 0 .27.4.27.45zM93.62 15.6v-2.84h7.82v-1.63h-7.82v-2.8h6.93l1.56-1.53H90.54v10.33h11.57l-1.56-1.53h-6.93zM162.04 8.34h6.94l1.55-1.53h-11.6l.01 10.32h10.05l1.55-1.53h-8.5V8.34zM153.95 24.5l1.38-1.55h-11.82v5.65h8.53v3.11h-8.92l1.92 1.6h10.11v-6.26h-8.55V24.5h7.35zM100.6 23h-11v10.31h3.13V28.9h5.52v4.41h3.09v-9.4c.02-.45-.27-.91-.74-.91zm-2.42 4.4h-5.4v-2.9h5.12c.26 0 .28.35.28.45zM120.24 31.8v-2.85h7.86V27.3h-7.86v-2.81h6.97l1.56-1.54h-11.63v10.39h11.63l-1.56-1.54h-6.97zM86.42 24.57l1.63-1.62H75.83v10.36h11.78v-5.65h-3.09v4.1h-5.56v-7.19h7.46zM103.04 22.95v10.41h3.12v-5.95l3.08 2.09 3.08-2.09v5.95h3.11V22.95l-6.19 4.16-6.2-4.16zM141.76 28.87v-5c0-.46-.28-1-.75-1h-11.15V33.3H133v-8.82h5.44c.26 0 .28.34.28.45v2h-5.11l5.59 6.35h3.66l-3.86-4.4zM88.69 14.11V7.76c0-.45 0-1-.62-1H75.83V14l3.23 3.52V8.34H85c.39 0 .48.15.48.53v3.31h-5.26l8.49 8.91V17.6l-3.22-3.49zM186.08 6.81h-10.45v7.48l2.52 2.87h8.67V7.62a.77.77 0 0 0-.74-.81zm-2.36 8.8h-3.28l-1.71-2V8.35h5z" class="cls-1"/>
</svg>
