<svg width="101" height="101" viewBox="0 0 101 101" fill="none" xmlns="http://www.w3.org/2000/svg">
<path d="M0.375 100.284C0.375 77.5273 22.7841 59.2779 50.375 59.2779C77.9659 59.2779 100.375 77.5273 100.375 99.9343L96.2841 100.197H92.1932C92.1932 82.1225 73.4205 67.4179 50.375 67.4179C27.3295 67.4179 8.55682 82.1225 8.55682 100.197L0.375 100.284ZM50.375 57.965C44.4486 57.9736 38.6528 56.2895 33.7208 53.1258C28.7888 49.962 24.9424 45.4608 22.6682 40.1917C20.3941 34.9226 19.7944 29.1225 20.945 23.5251C22.0957 17.9278 24.945 12.7848 29.1324 8.74706C33.3198 4.7093 38.6571 1.95818 44.469 0.84182C50.2808 -0.27454 56.306 0.294032 61.7821 2.47559C67.2583 4.65715 71.9392 8.35365 75.2327 13.0974C78.5261 17.8411 80.2841 23.4188 80.2841 29.1247C80.2841 36.766 77.1344 44.095 71.5267 49.5024C65.9189 54.9097 58.3116 57.9534 50.375 57.965ZM50.375 8.3807C46.0649 8.37205 41.8491 9.59524 38.2616 11.8953C34.6742 14.1954 31.8765 17.4689 30.2229 21.3012C28.5694 25.1334 28.1344 29.3519 28.973 33.4224C29.8117 37.4928 31.8862 41.2321 34.9339 44.1664C37.9817 47.1007 41.8654 49.0981 46.0931 49.9056C50.3208 50.7131 54.7023 50.2942 58.6826 48.7022C62.6629 47.1102 66.0629 44.4165 68.4519 40.9625C70.8408 37.5085 72.1113 33.4495 72.1023 29.2997C72.1023 23.7517 69.8132 18.4308 65.7385 14.5077C61.6638 10.5847 56.1374 8.3807 50.375 8.3807Z" fill="white"/>
</svg>
