<svg width="182" height="186" viewBox="0 0 182 186" fill="none" xmlns="http://www.w3.org/2000/svg">
<path d="M177.782 163.72L147.442 132.695C156.315 120.291 161.656 105.617 162.872 90.2986C164.088 74.9806 161.132 59.6175 154.332 45.9123C147.531 32.2071 137.152 20.6953 124.345 12.6532C111.538 4.61097 96.8025 0.352559 81.7731 0.350006C65.7059 0.432418 50.0213 5.37157 36.6923 14.5462C23.3633 23.7207 12.9852 36.721 6.86352 51.9117C0.741828 67.1023 -0.850077 83.8048 2.28805 99.9183C5.42619 116.032 13.1542 130.836 24.5 142.47C38.2102 156.534 56.3871 165.121 75.7474 166.68C95.1076 168.239 114.375 162.667 130.069 150.97L160.326 181.995C161.52 183.236 162.943 184.22 164.513 184.892C166.083 185.563 167.768 185.907 169.47 185.905C171.094 185.902 172.702 185.569 174.2 184.928C175.698 184.286 177.057 183.347 178.198 182.165C179.381 180.94 180.31 179.484 180.931 177.884C181.553 176.285 181.853 174.573 181.814 172.852C181.775 171.132 181.398 169.436 180.706 167.867C180.013 166.298 179.019 164.888 177.782 163.72ZM81.7731 15.31C97.1489 15.342 112.039 20.8214 123.909 30.8155C135.778 40.8097 143.895 54.701 146.876 70.1253C149.857 85.5496 147.519 101.554 140.26 115.414C133.001 129.274 121.269 140.134 107.061 146.144C92.8531 152.155 77.0473 152.946 62.3335 148.382C47.6198 143.818 34.9074 134.181 26.3599 121.111C17.8124 108.042 13.958 92.3476 15.4527 76.6994C16.9475 61.0512 23.6989 46.4161 34.5581 35.285C40.7514 28.9366 48.1114 23.9035 56.2145 20.4754C64.3177 17.0472 73.0039 15.2918 81.7731 15.31Z" fill="white"/>
</svg>
